# xmcd
#
# Track frame offsets:
#	187
#	21290
#	41700
#	63872
#	92220
#	118050
#	137992
#	162007
#	185357
#	209012
#
# Disc length: 3137 seconds
#
# Revision: 1
# Processed by: cddbd v1.4PL0 Copyright (c) Steve Scherf et al.
# Submitted via: EasyCDDAExtractor 5.0.7
#
DISCID=8f0c3f0a
DTITLE=Various Artist - Ngua Hoang
DYEAR=1900
DGENRE=
TTITLE0=Keu Nga - Ngua hoang
TTITLE1=Ngoc Bich - Thang sau troi mua
TTITLE2=Elvis Phuong - Nhu da dau yeu
TTITLE3=Huong Lan - Bai tinh ca cho em
TTITLE4=Anh Son - Lay troi con duoc binh yen
TTITLE5=Kieu Nga - Lang thang
TTITLE6=Huong Lan - Hai nam tinh lan dan
TTITLE7=Ngoc Bich - Buon vuong mau ao
TTITLE8=Anh son - Tinh khuc buon
TTITLE9=Ngoc Bich - Mua thu chet
EXTD=
EXTT0=
EXTT1=
EXTT2=
EXTT3=
EXTT4=
EXTT5=
EXTT6=
EXTT7=
EXTT8=
EXTT9=
PLAYORDER=
